<svg width="44" height="38" viewBox="0 0 44 38" fill="none" xmlns="http://www.w3.org/2000/svg">
<path d="M31.6752 3C32.7673 2.99908 33.8486 3.2162 34.8557 3.63862C35.8628 4.06104 36.7755 4.68027 37.5402 5.46C39.1158 7.05957 39.999 9.21474 39.999 11.46C39.999 13.7053 39.1158 15.8604 37.5402 17.46L22.0002 33.195L6.46015 17.46C4.88452 15.8604 4.00133 13.7053 4.00133 11.46C4.00133 9.21474 4.88452 7.05957 6.46015 5.46C7.22529 4.68083 8.13802 4.06193 9.14502 3.63944C10.152 3.21696 11.2331 2.99936 12.3252 2.99936C13.4172 2.99936 14.4983 3.21696 15.5053 3.63944C16.5123 4.06193 17.425 4.68083 18.1902 5.46L22.0002 9.36L25.7952 5.49C26.5575 4.70098 27.4712 4.0738 28.4815 3.64596C29.4918 3.21813 30.578 2.99843 31.6752 3V3ZM31.6752 4.02428e-06C30.1836 -0.00126006 28.7068 0.295287 27.3313 0.872257C25.9559 1.44923 24.7094 2.29501 23.6652 3.36L22.0002 5.04L20.3352 3.36C19.2896 2.29693 18.0428 1.45262 16.6676 0.87629C15.2924 0.299962 13.8162 0.00314614 12.3252 0.00314614C10.8341 0.00314614 9.35788 0.299962 7.98267 0.87629C6.60746 1.45262 5.36073 2.29693 4.31515 3.36C2.18797 5.52544 0.996094 8.43954 0.996094 11.475C0.996094 14.5105 2.18797 17.4246 4.31515 19.59L22.0002 37.5L39.6852 19.59C41.8123 17.4246 43.0042 14.5105 43.0042 11.475C43.0042 8.43954 41.8123 5.52544 39.6852 3.36C38.6398 2.29636 37.3932 1.45147 36.018 0.874596C34.6428 0.297723 33.1665 0.000414147 31.6752 4.02428e-06V4.02428e-06Z" fill="black"/>
</svg>
