<svg width="1" height="10" viewBox="0 0 31 31" fill="none" xmlns="http://www.w3.org/2000/svg">
<g clip-path="url(#clip0)">
<path d="M14.9314 5.9309L12.3395 11.0779L6.62998 11.8596C6.47371 11.8808 6.32878 11.9532 6.21793 12.0654C5.93938 12.3466 5.94132 12.8018 6.22176 13.0825L10.3169 17.1371L9.29738 22.8089C9.2689 22.9652 9.29369 23.125 9.36537 23.265C9.45296 23.4345 9.60426 23.5623 9.78604 23.6203C9.96781 23.6783 10.1652 23.6618 10.3348 23.5744L15.457 20.9343L20.5364 23.6575C20.6545 23.7211 20.7881 23.7502 20.9219 23.7417C21.0557 23.7332 21.1845 23.6874 21.2936 23.6094C21.4027 23.5314 21.4878 23.4245 21.5392 23.3006C21.5906 23.1767 21.6063 23.041 21.5844 22.9087L20.6557 17.2211L24.8146 13.2318C24.929 13.1232 25.0037 12.9776 25.0272 12.822C25.087 12.43 24.8187 12.0634 24.4266 12.0036L18.7299 11.1296L16.2205 5.9421C16.1517 5.80073 16.0388 5.68491 15.8968 5.61382C15.5431 5.43184 15.1112 5.57655 14.9314 5.9309V5.9309ZM17.6432 12.5973L22.3805 13.3238L18.9235 16.6429L19.6957 21.3736L15.472 19.1089L11.2108 21.3047L12.0587 16.5867L8.6544 13.215L13.4015 12.5642L15.5576 8.2829L17.6432 12.5973Z" fill="black"/>
</g>
<defs>
<clipPath id="clip0">
<rect width="23" height="23" fill="white" transform="translate(8.23291 0.950439) rotate(18.4594)"/>
</clipPath>
</defs>
</svg>
