<svg width="30" height="30" viewBox="0 0 30 30" fill="none" xmlns="http://www.w3.org/2000/svg">
<g clip-path="url(#clip0)">
<path d="M13.9814 4.98055L11.3894 10.1275L5.67989 10.9092C5.52362 10.9304 5.37869 11.0028 5.26784 11.115C4.98929 11.3961 4.99122 11.8514 5.27166 12.1321L9.36676 16.1867L8.34717 21.8585C8.31869 22.0148 8.34348 22.1746 8.41515 22.3146C8.50274 22.4841 8.65405 22.6119 8.83582 22.6699C9.01759 22.7279 9.21495 22.7114 9.38455 22.624L14.5068 19.984L19.5862 22.7073C19.7043 22.7708 19.8379 22.7999 19.9717 22.7914C20.1055 22.7829 20.2343 22.7371 20.3434 22.6591C20.4525 22.5812 20.5376 22.4742 20.589 22.3503C20.6404 22.2265 20.6561 22.0907 20.6342 21.9584L19.7055 16.2708L23.8645 12.2816C23.9789 12.1729 24.0536 12.0274 24.0771 11.8718C24.1369 11.4798 23.8686 11.1131 23.4765 11.0533L17.7798 10.1793L15.2705 4.99177C15.2017 4.8504 15.0888 4.73457 14.9468 4.66348C14.5931 4.4815 14.1612 4.6262 13.9814 4.98055V4.98055Z" fill="black"/>
</g>
<defs>
<clipPath id="clip0">
<rect width="23" height="23" fill="white" transform="translate(7.28271) rotate(18.46)"/>
</clipPath>
</defs>
</svg>
